<?xml version="1.0" standalone="no"?>
<!DOCTYPE svg PUBLIC "-//W3C//DTD SVG 20010904//EN"
 "http://www.w3.org/TR/2001/REC-SVG-20010904/DTD/svg10.dtd">
<svg version="1.0" xmlns="http://www.w3.org/2000/svg"
 width="512.000000pt" height="512.000000pt" viewBox="0 0 512.000000 512.000000"
 preserveAspectRatio="xMidYMid meet">

<g transform="translate(0.000000,512.000000) scale(0.100000,-0.100000)"
fill="#000000" stroke="none">
<path d="M500 3698 c0 -487 -3 -1175 -7 -1530 l-6 -646 74 -6 c472 -43 897
-188 1280 -438 188 -123 379 -285 516 -438 42 -47 80 -86 85 -88 4 -2 8 650 8
1450 l0 1453 -82 110 c-89 119 -331 368 -443 456 -406 317 -853 499 -1362 554
l-63 7 0 -884z"/>
<path d="M4545 4573 c-441 -52 -840 -196 -1175 -423 -211 -144 -456 -376 -603
-571 l-87 -117 0 -1456 0 -1455 163 162 c161 162 285 265 447 369 364 237 786
385 1219 428 57 5 107 10 112 10 5 0 9 638 9 1530 l0 1530 -27 -1 c-16 -1 -41
-4 -58 -6z"/>
<path d="M123 3862 l-123 -37 0 -1567 c0 -863 4 -1568 8 -1568 4 0 66 13 138
30 275 62 389 74 729 75 249 0 336 -4 440 -18 239 -34 476 -91 685 -166 46
-16 86 -28 88 -26 2 1 -38 39 -89 84 -431 381 -927 586 -1501 621 -119 7 -164
13 -183 26 -58 38 -55 -36 -55 1329 0 690 -3 1255 -7 1254 -5 0 -63 -17 -130
-37z"/>
<path d="M4860 2636 l0 -1253 -23 -34 c-29 -43 -71 -58 -167 -58 -190 -2 -467
-51 -680 -121 -316 -103 -650 -301 -885 -524 l-80 -75 84 30 c228 81 470 140
726 175 182 26 637 26 815 1 101 -14 304 -53 448 -84 l22 -5 0 1565 0 1566
-112 36 c-61 19 -120 35 -130 35 -17 0 -18 -44 -18 -1254z"/>
</g>
</svg>
