<?xml version="1.0" standalone="no"?>
<!DOCTYPE svg PUBLIC "-//W3C//DTD SVG 20010904//EN"
 "http://www.w3.org/TR/2001/REC-SVG-20010904/DTD/svg10.dtd">
<svg version="1.0" xmlns="http://www.w3.org/2000/svg"
 width="225.000000pt" height="225.000000pt" viewBox="0 0 225.000000 225.000000"
 preserveAspectRatio="xMidYMid meet">

<g transform="translate(0.000000,225.000000) scale(0.100000,-0.100000)"
fill="#000000" stroke="none">
<path d="M915 2144 c-112 -16 -227 -39 -266 -54 -94 -35 -186 -137 -228 -252
-78 -213 -44 -485 80 -640 l30 -37 -23 -5 c-13 -3 -54 -10 -93 -16 -165 -26
-256 -82 -327 -200 -156 -261 -88 -673 135 -803 116 -69 455 -104 728 -77 155
16 297 47 346 75 77 46 147 160 180 292 23 93 22 275 -1 368 -35 135 -115 258
-195 299 -68 36 -349 75 -533 76 l-97 0 -50 50 c-85 85 -131 213 -131 368 0
167 44 288 133 367 86 78 254 109 567 103 109 -1 202 -6 206 -10 3 -4 -8 -24
-26 -45 -81 -92 -125 -237 -124 -413 0 -197 43 -320 149 -425 89 -89 176 -109
271 -60 97 50 179 178 210 325 24 114 15 302 -20 399 -44 125 -108 211 -186
251 -75 38 -249 62 -485 65 -121 2 -233 1 -250 -1z m694 -144 c102 -52 171
-213 171 -402 0 -114 -13 -181 -50 -263 -46 -104 -115 -165 -185 -165 -124 0
-235 203 -235 427 1 184 82 364 185 409 42 18 70 17 114 -6z m-610 -934 c6 -4
-7 -28 -33 -60 -75 -93 -116 -231 -116 -396 0 -178 43 -318 127 -411 20 -22
33 -43 29 -47 -4 -4 -112 -7 -239 -7 -227 0 -326 10 -449 45 -49 14 -127 86
-161 148 -104 191 -80 471 52 615 63 68 137 92 371 121 52 6 407 -1 419 -8z
m240 -51 c37 -19 76 -65 108 -129 77 -152 81 -377 9 -540 -88 -198 -260 -211
-353 -26 -53 104 -66 175 -60 320 5 141 24 209 82 297 55 83 143 115 214 78z"/>
<path d="M1511 1961 c-12 -7 -6 -19 28 -58 53 -59 75 -102 90 -171 16 -74 13
-215 -5 -292 -15 -66 -54 -130 -80 -130 -10 0 -14 -13 -14 -46 l0 -47 37 6
c96 16 162 166 163 369 0 155 -46 302 -111 350 -29 22 -88 32 -108 19z"/>
<path d="M1458 1475 l4 -65 39 0 39 0 0 65 0 65 -42 0 -43 0 3 -65z"/>
<path d="M1130 973 c0 -15 41 -75 65 -96 80 -70 97 -356 29 -494 -20 -42 -30
-53 -50 -53 -22 0 -24 -4 -24 -45 l0 -45 36 0 c29 0 44 8 74 38 139 139 124
593 -23 683 -31 18 -107 27 -107 12z"/>
<path d="M1080 490 l0 -70 45 0 45 0 0 70 0 70 -45 0 -45 0 0 -70z"/>
<path d="M1822 1099 c-56 -28 -125 -106 -161 -183 -107 -226 -72 -569 74 -725
60 -64 115 -91 186 -91 139 0 256 125 306 327 22 90 22 275 0 365 -35 142
-121 268 -212 309 -55 26 -139 24 -193 -2z m179 -92 c70 -47 127 -159 149
-292 28 -168 -13 -352 -102 -459 -83 -101 -200 -88 -276 31 -56 87 -74 154
-79 293 -5 109 -2 137 17 209 27 99 87 194 140 222 48 26 109 24 151 -4z"/>
<path d="M1880 975 c0 -18 42 -82 60 -93 48 -29 87 -192 76 -323 -11 -133 -52
-229 -97 -229 -16 0 -19 -7 -19 -45 0 -44 0 -45 34 -45 99 0 169 153 169 370
0 227 -70 370 -182 370 -23 0 -41 -2 -41 -5z"/>
<path d="M1830 490 l0 -70 45 0 45 0 0 70 0 70 -45 0 -45 0 0 -70z"/>
</g>
</svg>
