<?xml version="1.0" standalone="no"?>
<!DOCTYPE svg PUBLIC "-//W3C//DTD SVG 20010904//EN"
 "http://www.w3.org/TR/2001/REC-SVG-20010904/DTD/svg10.dtd">
<svg version="1.0" xmlns="http://www.w3.org/2000/svg"
 width="512.000000pt" height="512.000000pt" viewBox="0 0 512.000000 512.000000"
 preserveAspectRatio="xMidYMid meet">

<g transform="translate(0.000000,512.000000) scale(0.100000,-0.100000)"
fill="#000000" stroke="none">
<path d="M1296 5104 c-34 -11 -64 -31 -102 -68 -76 -76 -84 -111 -84 -358 l0
-198 -43 0 c-130 0 -393 -48 -548 -100 -253 -85 -422 -218 -491 -388 l-23 -57
-3 -1652 -2 -1652 29 -33 c29 -33 31 -33 129 -36 l100 -4 4 -201 c4 -219 7
-233 65 -291 56 -57 91 -66 276 -66 189 0 217 7 280 68 57 55 67 103 67 314
l0 178 260 0 260 0 0 -178 c0 -211 10 -259 67 -314 63 -61 91 -68 281 -68 160
0 171 1 219 25 54 27 97 78 113 136 6 19 10 116 10 216 l0 183 180 0 180 0 0
-189 c0 -114 4 -201 11 -222 19 -56 59 -100 113 -125 47 -22 63 -24 211 -24
181 0 214 6 269 52 68 56 76 85 76 311 l0 197 470 0 470 0 0 -197 c0 -226 8
-255 76 -311 55 -46 88 -52 269 -52 148 0 164 2 211 24 54 25 94 69 113 125 7
21 11 108 11 222 l0 187 121 4 121 3 29 33 30 33 -4 1047 c-3 1148 1 1068 -62
1194 -77 153 -220 272 -378 312 l-52 13 -5 149 c-6 160 -15 193 -65 252 -15
18 -48 45 -74 60 -43 25 -55 27 -183 30 l-138 4 0 592 c0 686 2 665 -84 752
-91 91 20 84 -1445 83 -1113 0 -1293 -2 -1335 -15z m2639 -209 l25 -24 0 -590
0 -589 -137 -4 c-159 -4 -195 -17 -257 -90 -51 -60 -66 -118 -66 -265 l0 -123
-540 0 -540 0 0 338 c0 368 -5 408 -57 505 -114 208 -424 360 -843 412 -68 8
-144 15 -167 15 l-43 0 0 195 c0 195 0 196 25 220 l24 25 1276 0 1276 0 24
-25z m-2431 -630 c213 -28 421 -93 538 -168 124 -79 178 -165 178 -284 l0 -73
-290 0 c-312 0 -331 -3 -356 -51 -17 -34 -18 -60 -2 -94 24 -52 42 -55 358
-55 l290 0 0 -1390 0 -1390 -1010 0 -1010 0 0 1390 0 1390 290 0 c312 0 331 3
356 51 27 52 8 115 -41 137 -18 8 -113 12 -317 12 l-291 0 5 83 c3 57 11 94
25 122 25 47 100 122 160 159 109 67 325 134 520 161 137 18 455 18 597 0z
m2896 -795 c18 -18 20 -33 20 -140 l0 -120 -360 0 -360 0 0 120 c0 174 -32
160 360 160 307 0 321 -1 340 -20z m179 -470 c116 -19 228 -95 286 -194 56
-95 55 -80 55 -1103 l0 -943 -1250 0 -1250 0 0 1125 0 1125 1048 0 c671 0
1070 -4 1111 -10z m-3831 -2617 l-3 -178 -140 0 -140 0 -3 178 -2 177 145 0
145 0 -2 -177z m1210 0 l-3 -178 -140 0 -140 0 -3 178 -2 177 145 0 145 0 -2
-177z m1042 -3 l0 -180 -140 0 -140 0 0 180 0 180 140 0 140 0 0 -180z m1620
0 l0 -180 -140 0 -140 0 0 180 0 180 140 0 140 0 0 -180z"/>
<path d="M1161 3726 c-66 -37 -67 -131 -1 -169 50 -30 104 -16 133 33 52 88
-42 186 -132 136z"/>
<path d="M1085 3207 c-114 -119 -183 -244 -209 -380 -11 -58 -11 -59 -41 -53
-173 31 -241 34 -284 11 -45 -23 -54 -60 -49 -193 4 -83 12 -137 28 -187 15
-47 19 -70 11 -73 -42 -14 -56 -194 -25 -321 64 -258 267 -460 519 -516 l75
-17 0 -90 c0 -99 13 -137 55 -156 33 -15 57 -15 90 0 42 19 55 57 55 156 l0
90 75 17 c206 46 381 187 471 382 47 99 64 180 64 305 0 98 -2 109 -24 136
l-25 29 21 64 c14 44 22 101 26 181 5 133 -4 170 -49 193 -43 23 -111 20 -284
-11 -30 -6 -30 -5 -41 53 -26 136 -95 261 -209 380 -77 80 -82 83 -125 83 -43
0 -48 -3 -125 -83z m162 -199 c67 -94 114 -224 112 -308 -1 -30 -12 -45 -75
-104 l-74 -70 -67 67 c-36 37 -70 67 -75 67 -26 0 6 170 48 253 29 58 84 137
94 137 4 0 20 -19 37 -42z m-379 -463 c52 -24 92 -54 135 -97 78 -79 107 -137
107 -212 l0 -56 -45 35 c-57 43 -160 92 -226 108 -36 8 -57 20 -71 40 -25 35
-57 125 -65 184 l-6 46 49 -7 c27 -3 82 -22 122 -41z m849 0 c-8 -57 -40 -147
-65 -182 -14 -20 -35 -32 -71 -40 -66 -16 -169 -65 -226 -108 l-45 -35 0 57
c0 76 28 133 105 209 79 80 199 141 279 143 28 1 29 0 23 -44z m-947 -410
c112 -23 250 -125 310 -231 27 -46 30 -60 30 -137 l0 -85 -47 12 c-165 44
-297 176 -347 345 -22 75 -21 114 2 107 9 -2 33 -8 52 -11z m950 -13 c0 -16
-7 -53 -16 -83 -50 -169 -182 -301 -346 -345 l-48 -12 0 87 c0 85 1 90 38 147
71 109 184 190 305 220 29 7 55 13 60 13 4 1 7 -12 7 -27z"/>
<path d="M2978 2698 c-77 -10 -143 -45 -201 -107 -72 -77 -92 -127 -92 -236 0
-82 3 -97 33 -157 38 -77 91 -128 172 -166 46 -22 70 -26 140 -27 77 0 92 3
152 33 74 36 133 96 170 170 19 39 23 63 23 142 0 82 -4 103 -26 151 -66 140
-212 218 -371 197z m149 -230 c81 -76 68 -199 -27 -249 -128 -69 -275 85 -200
208 49 80 163 101 227 41z"/>
<path d="M3944 2699 c-115 -15 -220 -93 -270 -202 -25 -53 -29 -74 -29 -147 1
-70 5 -95 27 -142 34 -72 98 -137 174 -174 51 -25 70 -29 144 -29 76 0 92 3
152 33 82 40 149 111 178 190 18 46 21 73 18 142 -3 73 -9 94 -38 148 -70 132
-205 200 -356 181z m159 -248 c33 -36 37 -46 37 -94 0 -95 -70 -163 -159 -154
-136 14 -189 190 -80 270 65 47 145 38 202 -22z"/>
<path d="M2731 1686 c-67 -37 -65 -143 4 -174 37 -17 1323 -17 1360 0 29 13
55 55 55 88 0 31 -29 76 -57 89 -38 17 -1330 14 -1362 -3z"/>
<path d="M2709 1261 c-40 -40 -40 -89 0 -133 l29 -33 677 0 677 0 29 33 c16
18 29 44 29 58 0 33 -25 81 -49 94 -13 6 -250 10 -691 10 l-672 0 -29 -29z"/>
</g>
</svg>
