<?xml version="1.0" standalone="no"?>
<!DOCTYPE svg PUBLIC "-//W3C//DTD SVG 20010904//EN"
 "http://www.w3.org/TR/2001/REC-SVG-20010904/DTD/svg10.dtd">
<svg version="1.0" xmlns="http://www.w3.org/2000/svg"
 width="226.000000pt" height="223.000000pt" viewBox="0 0 226.000000 223.000000"
 preserveAspectRatio="xMidYMid meet">

<g transform="translate(0.000000,223.000000) scale(0.100000,-0.100000)"
fill="#000000" stroke="none">
<path d="M1033 2220 c-243 -44 -444 -250 -473 -485 -20 -159 15 -301 103 -416
15 -20 27 -38 27 -40 0 -2 -39 -2 -86 0 -408 16 -701 -374 -569 -759 14 -41
42 -99 61 -128 44 -63 144 -158 191 -180 18 -9 33 -19 33 -23 0 -5 -68 -8
-151 -8 -155 0 -184 -6 -159 -36 11 -13 134 -15 1120 -15 986 0 1109 2 1120
15 8 10 10 19 4 25 -5 5 -78 10 -162 11 -83 0 -152 4 -152 8 0 4 15 14 33 23
47 22 147 117 191 180 78 115 112 288 82 426 -60 284 -299 472 -587 460 -49
-1 -89 -1 -89 1 0 3 9 14 19 25 23 25 73 117 90 166 20 58 29 173 20 262 -21
206 -188 403 -397 468 -75 23 -198 32 -269 20z m232 -65 c176 -46 316 -183
371 -364 21 -71 18 -219 -7 -294 -60 -179 -194 -301 -380 -349 -173 -43 -341
3 -484 134 -62 56 -104 124 -135 218 -19 55 -21 82 -18 175 3 102 6 115 39
185 20 41 54 98 77 126 64 81 183 152 297 177 47 11 185 6 240 -8z m-572 -941
c75 -17 180 -71 243 -126 49 -44 112 -138 136 -206 29 -83 35 -213 13 -301
-55 -224 -267 -391 -499 -393 -233 -2 -427 136 -502 359 -102 300 94 619 416
676 54 9 124 6 193 -9z m1149 -12 c332 -110 467 -501 270 -788 -50 -74 -81
-103 -157 -149 -97 -58 -178 -78 -298 -73 -85 3 -114 9 -173 34 -203 87 -324
266 -324 481 0 300 253 537 551 518 42 -3 101 -13 131 -23z m-602 -118 c0 -1
-21 -32 -46 -69 -25 -38 -48 -81 -51 -97 -7 -36 -19 -36 -26 0 -3 15 -26 58
-51 96 -25 38 -46 69 -46 70 0 1 50 1 110 1 61 0 110 -1 110 -1z m-72 -635
c39 -82 110 -162 190 -215 31 -21 61 -42 66 -46 6 -4 -124 -7 -287 -7 -163 1
-297 4 -297 8 0 3 19 17 42 30 88 50 197 178 230 268 7 18 14 33 18 32 3 0 20
-31 38 -70z"/>
<path d="M1014 2095 c-77 -21 -143 -60 -206 -121 -208 -201 -174 -537 71 -701
88 -60 150 -76 275 -71 91 3 110 7 167 36 128 62 217 167 250 293 10 40 19 93
19 118 0 66 -26 166 -57 224 -34 61 -120 146 -182 181 -99 53 -231 70 -337 41z
m196 -46 c27 -6 50 -13 50 -16 0 -3 -34 -53 -77 -111 -42 -59 -141 -198 -221
-309 -80 -112 -148 -203 -153 -203 -10 0 -59 82 -59 99 0 7 26 49 58 94 292
409 329 457 342 457 5 0 32 -5 60 -11z m-150 -1 c0 -4 -68 -98 -180 -253 -47
-64 -99 -137 -116 -161 l-32 -45 -4 31 c-7 46 9 146 32 198 24 54 78 122 125
158 46 35 175 88 175 72z m299 -63 c22 -13 42 -29 46 -35 4 -6 -22 -50 -58
-98 -35 -48 -128 -177 -207 -287 -203 -283 -190 -267 -209 -260 -21 8 -81 49
-81 55 0 3 52 77 115 165 64 88 168 233 232 323 64 89 118 162 120 162 2 0 21
-11 42 -25z m124 -134 c15 -27 27 -53 27 -58 0 -6 -73 -111 -161 -234 -89
-123 -176 -244 -193 -267 -31 -44 -31 -44 -84 -40 -93 8 -107 -21 185 383 24
33 76 106 116 162 39 57 75 103 78 103 3 0 18 -22 32 -49z m44 -261 c-10 -76
-57 -166 -114 -223 -50 -50 -150 -107 -190 -107 -21 0 -18 6 37 83 33 45 106
147 162 227 103 145 103 145 108 110 3 -19 2 -60 -3 -90z"/>
<path d="M484 1155 c-167 -36 -301 -163 -349 -329 -28 -96 -17 -215 28 -311
154 -323 600 -355 801 -57 149 222 69 525 -171 650 -73 38 -164 63 -222 61
-14 0 -53 -7 -87 -14z m156 -445 l0 -400 -60 0 -60 0 0 400 0 400 60 0 60 0 0
-400z m-170 -5 c0 -276 -3 -385 -11 -385 -6 0 -33 12 -60 27 l-49 26 0 337 0
337 48 21 c26 12 53 21 60 22 9 0 12 -83 12 -385z m305 356 l30 -17 3 -328 c2
-253 -1 -332 -10 -344 -16 -19 -89 -52 -100 -46 -4 3 -8 176 -8 386 l0 380 28
-7 c15 -3 41 -14 57 -24z m-485 -353 l-1 -283 -25 30 c-36 44 -72 123 -86 188
-15 73 -1 167 38 240 23 45 63 105 72 106 1 1 2 -126 2 -281z m608 249 c29
-31 70 -123 82 -188 14 -69 5 -139 -26 -209 -26 -57 -72 -130 -83 -130 -3 0
-6 124 -6 275 0 151 3 275 6 275 3 0 15 -10 27 -23z"/>
<path d="M1590 1156 c-129 -28 -250 -119 -314 -235 -149 -275 22 -617 332
-663 208 -31 400 71 490 259 36 75 37 82 37 188 0 107 -1 112 -39 192 -66 139
-190 235 -340 262 -72 13 -95 13 -166 -3z m100 -216 c98 -431 134 -609 126
-617 -2 -3 -28 -6 -57 -7 l-52 -1 -37 165 c-92 413 -132 602 -128 605 12 10
68 23 87 22 23 -2 26 -12 61 -167z m90 160 c64 -18 50 26 161 -495 40 -188 41
-173 -9 -212 -24 -18 -47 -33 -52 -33 -5 0 -14 26 -20 58 -28 133 -92 426
-120 547 -17 72 -30 133 -30 138 0 10 28 9 70 -3z m-286 -57 c3 -10 8 -36 11
-58 7 -38 33 -157 109 -500 20 -88 36 -163 36 -167 0 -12 -47 -10 -90 3 l-37
11 -22 107 c-12 58 -37 174 -56 256 -18 83 -39 181 -46 219 l-13 69 43 38 c49
44 57 47 65 22z m473 -55 c31 -32 65 -81 85 -123 30 -63 33 -79 33 -160 0 -77
-4 -98 -28 -150 -32 -68 -38 -65 -57 30 -7 33 -27 128 -45 210 -49 227 -53
245 -46 245 4 0 30 -24 58 -52z m-613 -120 c4 -24 22 -110 40 -193 48 -214 65
-299 61 -303 -2 -3 -28 20 -58 49 -92 93 -141 233 -119 345 13 63 51 156 62
149 4 -2 10 -24 14 -47z"/>
<path d="M659 98 c7 -10 11 -27 8 -38 -3 -11 -1 -18 4 -14 15 9 10 41 -8 55
-16 13 -17 12 -4 -3z"/>
<path d="M715 89 c-4 -5 -4 -21 -1 -35 5 -17 13 -24 31 -24 14 0 25 4 25 8 0
5 -10 8 -22 8 -19 -1 -23 4 -21 27 2 29 -2 34 -12 16z"/>
<path d="M755 90 c3 -5 8 -10 11 -10 2 0 4 5 4 10 0 6 -5 10 -11 10 -5 0 -7
-4 -4 -10z"/>
<path d="M1172 65 c0 -22 2 -32 5 -22 2 9 13 17 24 17 13 0 19 7 18 23 -1 16
-2 18 -6 5 -2 -10 -11 -18 -18 -18 -7 0 -16 8 -18 18 -3 9 -5 -1 -5 -23z"/>
<path d="M1350 90 c0 -5 5 -10 11 -10 5 0 7 5 4 10 -3 6 -8 10 -11 10 -2 0 -4
-4 -4 -10z"/>
<path d="M795 81 c-3 -7 0 -8 9 -5 10 4 16 -3 19 -23 l5 -28 -2 29 c-1 30 -19
45 -31 27z"/>
<path d="M855 81 c-3 -7 0 -8 9 -5 10 4 16 -3 19 -23 l5 -28 -2 29 c-1 30 -19
45 -31 27z"/>
<path d="M1007 84 c-10 -10 -9 -42 2 -48 4 -3 6 6 3 21 -4 19 -1 24 9 21 8 -3
14 -15 13 -27 0 -15 2 -19 10 -11 7 7 7 16 0 27 -12 20 -27 26 -37 17z"/>
<path d="M1065 79 c-4 -6 -4 -13 -1 -16 3 -4 6 -1 6 6 0 8 6 11 16 7 8 -3 12
-2 9 4 -8 13 -22 13 -30 -1z"/>
<path d="M1237 74 c4 -11 8 -13 11 -6 6 20 20 13 25 -13 4 -23 4 -23 3 2 -1
21 -7 29 -23 31 -18 3 -22 0 -16 -14z"/>
<path d="M1295 69 c-8 -25 7 -44 29 -36 21 8 21 43 0 51 -22 8 -22 8 -29 -15z
m35 -15 c0 -8 -7 -14 -15 -14 -15 0 -21 21 -9 33 10 9 24 -2 24 -19z"/>
<path d="M1387 83 c-10 -9 -8 -53 2 -53 4 0 6 12 3 27 -4 22 -2 25 12 20 10
-4 15 -3 11 3 -7 12 -19 13 -28 3z"/>
<path d="M1472 78 c-14 -14 -16 -35 -4 -42 5 -3 8 5 8 17 -1 13 4 21 12 20 6
-2 12 2 12 7 0 14 -13 13 -28 -2z"/>
<path d="M1524 76 c-3 -8 -4 -23 -1 -33 3 -11 5 -7 6 11 1 21 5 27 17 22 8 -3
12 -2 9 4 -9 15 -25 12 -31 -4z"/>
<path d="M1585 80 c-4 -6 -4 -14 -1 -17 3 -4 6 -1 6 5 0 24 19 11 23 -15 5
-28 5 -28 3 1 -1 31 -19 45 -31 26z"/>
<path d="M915 70 c3 -6 13 -10 21 -10 17 0 19 -16 2 -23 -8 -3 -5 -6 5 -6 26
-1 18 30 -11 40 -15 6 -21 5 -17 -1z"/>
<path d="M1113 56 c0 -8 6 -12 14 -9 7 3 13 0 13 -6 0 -6 5 -11 10 -11 6 0 5
8 -2 20 -15 23 -35 27 -35 6z"/>
<path d="M785 51 c-3 -5 -1 -12 4 -15 5 -3 11 1 15 9 6 16 -9 21 -19 6z"/>
<path d="M1350 51 c0 -6 4 -13 10 -16 6 -3 7 1 4 9 -7 18 -14 21 -14 7z"/>
<path d="M1641 44 c0 -11 3 -14 6 -6 3 7 2 16 -1 19 -3 4 -6 -2 -5 -13z"/>
<path d="M1060 39 c0 -5 9 -9 20 -9 11 0 20 2 20 4 0 2 -9 6 -20 9 -11 3 -20
1 -20 -4z"/>
</g>
</svg>
