<?xml version="1.0" standalone="no"?>
<!DOCTYPE svg PUBLIC "-//W3C//DTD SVG 20010904//EN"
 "http://www.w3.org/TR/2001/REC-SVG-20010904/DTD/svg10.dtd">
<svg version="1.0" xmlns="http://www.w3.org/2000/svg"
 width="225.000000pt" height="225.000000pt" viewBox="0 0 225.000000 225.000000"
 preserveAspectRatio="xMidYMid meet">

<g transform="translate(0.000000,225.000000) scale(0.100000,-0.100000)"
fill="#000000" stroke="none">
<path d="M310 2085 l0 -145 45 0 45 0 0 100 0 100 518 0 517 -1 172 -162 172
-162 1 -82 0 -83 45 0 45 0 0 99 0 99 -152 144 c-84 79 -177 165 -207 191
l-53 47 -574 0 -574 0 0 -145z"/>
<path d="M250 1830 c-148 -71 -185 -93 -183 -108 2 -15 129 -283 495 -1039 48
-100 52 -104 201 -244 84 -79 176 -166 205 -193 l52 -51 -6 289 -7 289 -239
496 c-132 273 -255 531 -275 574 -20 42 -41 77 -47 77 -6 -1 -94 -41 -196 -90z
m659 -1218 c12 32 22 -93 13 -151 l-7 -44 -80 77 c-44 42 -70 72 -58 67 34
-17 40 -14 47 30 l7 41 35 -21 35 -21 8 22z"/>
<path d="M1123 1556 l-28 -24 0 -599 c0 -329 3 -610 8 -625 14 -53 13 -53 545
-53 l494 0 24 28 24 29 -2 614 -3 615 -25 19 c-24 19 -47 20 -517 20 l-492 0
-28 -24z m935 -268 l-3 -163 -412 -3 -413 -2 0 165 0 165 415 0 415 0 -2 -162z
m-690 -345 l-3 -48 -67 -3 -68 -3 0 51 0 50 71 0 70 0 -3 -47z m342 -3 l0 -51
-67 3 -68 3 -3 48 -3 47 70 0 71 0 0 -50z m348 3 l-3 -48 -67 -3 -68 -3 0 51
0 50 71 0 70 0 -3 -47z m-690 -230 l-3 -48 -67 -3 -68 -3 0 51 0 50 71 0 70 0
-3 -47z m342 -3 l0 -51 -67 3 -68 3 -3 48 -3 47 70 0 71 0 0 -50z m348 3 l-3
-48 -67 -3 -68 -3 0 51 0 50 71 0 70 0 -3 -47z m-690 -230 l-3 -48 -67 -3 -68
-3 0 51 0 50 71 0 70 0 -3 -47z m342 -3 l0 -51 -67 3 -68 3 -3 48 -3 47 70 0
71 0 0 -50z m348 3 l-3 -48 -67 -3 -68 -3 0 51 0 50 71 0 70 0 -3 -47z"/>
<path d="M310 480 l0 -460 758 2 757 3 3 42 3 43 -715 0 -716 0 0 415 0 415
-45 0 -45 0 0 -460z"/>
</g>
</svg>
