<?xml version="1.0" standalone="no"?>
<!DOCTYPE svg PUBLIC "-//W3C//DTD SVG 20010904//EN"
 "http://www.w3.org/TR/2001/REC-SVG-20010904/DTD/svg10.dtd">
<svg version="1.0" xmlns="http://www.w3.org/2000/svg"
 width="200.000000pt" height="200.000000pt" viewBox="0 0 200.000000 200.000000"
 preserveAspectRatio="xMidYMid meet">

<g transform="translate(0.000000,200.000000) scale(0.100000,-0.100000)"
fill="#000000" stroke="none">
<path d="M272 1780 c-18 -11 -41 -34 -52 -52 -20 -32 -20 -49 -17 -778 l2
-745 75 0 75 0 5 720 5 720 75 0 75 0 3 -127 c3 -126 2 -127 -28 -175 -61 -96
-63 -113 -68 -512 -2 -200 -1 -374 2 -387 6 -21 12 -24 56 -24 l50 0 0 -34 c0
-25 -5 -35 -20 -39 -22 -6 -40 -44 -40 -87 0 -56 6 -60 86 -60 l74 0 0 58 c0
63 -5 74 -37 91 -16 8 -23 21 -23 41 l0 30 280 0 280 0 0 -35 c0 -24 -5 -35
-15 -35 -26 0 -46 -45 -43 -97 l3 -48 75 0 75 0 3 57 c3 53 1 58 -28 79 l-30
23 1 150 0 151 47 -95 c41 -82 51 -95 75 -98 26 -3 27 -5 27 -63 l0 -59 110 0
110 0 0 60 c0 57 1 60 25 60 21 0 32 14 74 98 l50 97 0 -157 c1 -133 -1 -158
-14 -158 -26 0 -46 -45 -43 -97 l3 -48 75 0 75 0 3 57 c3 53 1 58 -28 79 l-30
23 0 182 0 183 33 3 32 3 3 458 2 457 -37 0 c-33 0 -44 7 -82 51 -29 33 -64
61 -98 76 -50 23 -64 25 -166 22 -100 -4 -117 -7 -158 -31 -25 -15 -62 -47
-83 -72 -29 -36 -43 -45 -74 -48 l-37 -3 -3 -81 -3 -81 -57 23 -57 23 -5 133
-5 133 -90 0 -90 0 -3 -132 -3 -131 -31 -11 c-17 -6 -32 -11 -34 -11 -1 0 -4
45 -6 99 -5 164 -39 191 -243 191 -112 0 -134 -3 -163 -20z m330 -49 l33 -29
3 -109 2 -108 -40 -27 -40 -28 0 109 c0 108 -1 110 -27 131 -25 19 -38 21
-106 18 -64 -3 -81 -7 -93 -23 -12 -16 -14 -132 -14 -722 l0 -703 -40 0 -40 0
0 723 c1 580 3 727 14 746 24 43 52 50 188 51 127 0 128 0 160 -29z m300 -103
c3 -124 4 -133 23 -136 11 -2 46 -15 78 -29 l57 -26 0 -143 0 -144 -296 0
-297 0 6 39 c17 132 130 254 272 296 l40 12 3 132 3 131 54 0 54 0 3 -132z
m656 116 c36 -15 102 -70 102 -86 0 -4 -103 -8 -230 -8 -126 0 -230 4 -230 8
0 15 65 71 100 86 48 21 208 21 258 0z m202 -554 l0 -420 -330 0 -330 0 0 420
0 420 330 0 330 0 0 -420z m-698 -267 l3 -188 33 -3 32 -3 0 -135 0 -134 -335
0 -335 0 0 325 0 325 300 0 300 0 2 -187z m608 -198 c0 -3 -24 -52 -52 -110
l-53 -105 -137 0 -138 0 -50 106 c-27 59 -50 109 -50 110 0 2 108 4 240 4 132
0 240 -2 240 -5z m-170 -295 l0 -40 -70 0 -70 0 0 40 0 40 70 0 70 0 0 -40z
m-912 -152 l3 -38 -40 0 c-35 0 -41 3 -41 21 0 38 19 60 48 57 23 -3 27 -8 30
-40z m586 36 c10 -4 16 -18 16 -40 0 -33 -1 -34 -40 -34 -37 0 -40 2 -40 28 0
43 25 61 64 46z m560 0 c10 -4 16 -18 16 -40 0 -33 -1 -34 -40 -34 -37 0 -40
2 -40 28 0 43 25 61 64 46z"/>
<path d="M1260 1000 l0 -110 173 2 172 3 0 105 0 105 -172 3 -173 2 0 -110z
m310 0 l0 -70 -135 0 -135 0 0 70 0 70 135 0 135 0 0 -70z"/>
</g>
</svg>
