<?xml version="1.0" standalone="no"?>
<!DOCTYPE svg PUBLIC "-//W3C//DTD SVG 20010904//EN"
 "http://www.w3.org/TR/2001/REC-SVG-20010904/DTD/svg10.dtd">
<svg version="1.0" xmlns="http://www.w3.org/2000/svg"
 width="512.000000pt" height="512.000000pt" viewBox="0 0 512.000000 512.000000"
 preserveAspectRatio="xMidYMid meet">

<g transform="translate(0.000000,512.000000) scale(0.100000,-0.100000)"
fill="#000000" stroke="none">
<path d="M2444 5106 c-82 -24 -156 -60 -273 -136 -62 -39 -140 -84 -174 -101
l-62 -29 -232 0 c-132 0 -255 -5 -285 -11 -79 -17 -151 -54 -213 -110 -75 -69
-110 -120 -201 -293 -49 -92 -94 -165 -120 -190 -26 -26 -102 -74 -210 -131
-147 -78 -179 -100 -245 -165 -132 -130 -149 -191 -149 -523 l0 -232 -29 -60
c-15 -33 -64 -117 -108 -187 -108 -170 -138 -253 -138 -378 0 -125 30 -208
138 -378 44 -70 93 -154 108 -187 l29 -60 0 -232 c0 -332 17 -393 149 -523 66
-65 99 -87 245 -165 107 -57 184 -105 210 -131 25 -25 70 -96 115 -180 96
-181 130 -232 201 -298 65 -60 137 -98 218 -115 30 -6 153 -11 285 -11 l233 0
69 -34 c39 -19 120 -66 180 -105 61 -39 146 -86 190 -103 71 -28 92 -32 180
-32 130 -1 210 27 383 137 70 44 154 93 187 108 l60 29 232 0 c255 0 307 7
401 52 114 56 192 157 337 436 55 106 101 146 260 230 178 94 232 131 298 202
110 118 127 186 127 500 l0 235 29 60 c15 33 64 117 108 187 108 170 138 253
138 378 0 125 -30 208 -138 378 -44 70 -93 154 -108 187 l-29 60 0 232 c0 132
-5 255 -11 285 -17 81 -55 153 -115 218 -67 71 -121 108 -299 202 -159 84
-205 124 -260 230 -145 279 -223 380 -337 436 -94 45 -146 52 -401 52 l-232 0
-60 29 c-33 15 -117 64 -186 108 -160 101 -245 134 -359 139 -55 3 -103 -1
-136 -10z m-738 -1479 c33 -38 33 -96 0 -134 -24 -28 -25 -28 -160 -31 l-136
-4 0 -93 0 -93 119 -4 c110 -3 121 -5 145 -27 47 -44 44 -112 -8 -153 -17 -14
-42 -18 -138 -18 l-118 0 0 -165 c0 -179 -6 -207 -51 -231 -52 -27 -115 -8
-137 41 -18 39 -16 861 2 894 26 47 46 51 259 48 l199 -2 24 -28z m615 7 c66
-31 124 -87 156 -152 38 -78 40 -183 4 -256 -30 -61 -86 -118 -143 -147 -24
-12 -45 -23 -47 -25 -2 -2 41 -54 96 -116 55 -62 105 -123 111 -135 44 -81
-45 -172 -130 -132 -13 5 -81 77 -153 159 l-130 149 -5 -130 -5 -131 -33 -29
c-18 -16 -44 -29 -58 -29 -33 0 -81 25 -94 49 -14 27 -14 875 0 901 23 44 55
50 225 47 139 -2 166 -5 206 -23z m838 12 c28 -15 51 -53 51 -86 0 -33 -23
-71 -51 -86 -20 -10 -65 -14 -159 -14 l-130 0 0 -99 0 -99 131 -4 c129 -3 131
-3 155 -31 16 -19 24 -40 24 -67 0 -27 -8 -48 -24 -67 -24 -28 -26 -28 -155
-31 l-131 -4 0 -99 0 -99 130 0 c144 0 177 -9 198 -55 23 -51 7 -107 -39 -131
-22 -11 -74 -14 -223 -14 l-196 0 -32 29 -33 29 0 442 0 442 33 29 32 29 196
0 c149 0 201 -3 223 -14z m700 0 c28 -15 51 -53 51 -86 0 -33 -23 -71 -51 -86
-20 -10 -65 -14 -159 -14 l-130 0 0 -99 0 -99 131 -4 c129 -3 131 -3 155 -31
16 -19 24 -40 24 -67 0 -27 -8 -48 -24 -67 -24 -28 -26 -28 -155 -31 l-131 -4
0 -99 0 -99 130 0 c144 0 177 -9 198 -55 23 -51 7 -107 -39 -131 -22 -11 -74
-14 -223 -14 l-196 0 -32 29 -33 29 0 442 0 442 33 29 32 29 196 0 c149 0 201
-3 223 -14z m-2416 -1197 c75 -39 75 -139 0 -178 -12 -6 -53 -11 -92 -11 l-71
0 0 -360 c0 -386 -2 -400 -51 -426 -52 -27 -115 -8 -137 41 -9 18 -12 128 -12
385 l0 360 -70 0 c-81 0 -116 13 -136 51 -26 51 -10 109 37 135 31 17 499 20
532 3z m619 -22 c33 -16 76 -49 102 -78 134 -148 86 -378 -97 -470 -23 -12
-44 -23 -45 -24 -2 -2 46 -60 107 -129 102 -116 111 -129 111 -166 0 -47 -30
-85 -76 -96 -55 -14 -68 -3 -296 256 l-57 65 -1 -122 c0 -134 -9 -167 -51
-189 -52 -27 -115 -8 -137 41 -18 39 -16 861 2 894 26 46 49 51 221 49 152 -3
163 -4 217 -31z m496 -2 l22 -26 0 -439 0 -439 -24 -28 c-20 -23 -32 -28 -71
-28 -39 0 -51 5 -71 28 l-24 28 0 437 c0 473 0 470 54 493 35 14 89 2 114 -26z
m606 20 c17 -8 37 -24 43 -34 12 -19 298 -770 314 -825 19 -65 -41 -133 -108
-123 -50 8 -68 30 -102 117 l-28 75 -173 0 -173 0 -28 -75 c-34 -87 -52 -109
-102 -117 -46 -7 -83 15 -103 62 -17 42 -29 3 159 498 80 208 153 387 163 399
36 39 86 48 138 23z m665 1 c49 -26 51 -40 51 -426 l0 -360 100 0 c110 0 145
-11 166 -51 23 -45 17 -78 -20 -115 l-34 -34 -166 0 c-182 0 -212 7 -234 55
-18 39 -16 861 2 894 26 47 84 63 135 37z"/>
<path d="M2080 3350 l0 -110 53 0 c75 0 122 16 151 51 30 35 33 67 10 110 -20
40 -68 59 -149 59 l-65 0 0 -110z"/>
<path d="M1810 2149 l0 -112 73 5 c39 3 84 11 98 18 52 24 75 102 43 148 -26
37 -67 52 -144 52 l-70 0 0 -111z"/>
<path d="M3065 1992 c-22 -59 -41 -113 -43 -119 -3 -10 20 -13 87 -13 50 0 91
3 91 7 0 13 -85 233 -90 233 -3 0 -23 -48 -45 -108z"/>
</g>
</svg>
