<?xml version="1.0" standalone="no"?>
<!DOCTYPE svg PUBLIC "-//W3C//DTD SVG 20010904//EN"
 "http://www.w3.org/TR/2001/REC-SVG-20010904/DTD/svg10.dtd">
<svg version="1.0" xmlns="http://www.w3.org/2000/svg"
 width="512.000000pt" height="512.000000pt" viewBox="0 0 512.000000 512.000000"
 preserveAspectRatio="xMidYMid meet">

<g transform="translate(0.000000,512.000000) scale(0.100000,-0.100000)"
fill="#000000" stroke="none">
<path d="M2463 4672 c-28 -15 -1317 -1062 -1495 -1215 -83 -70 -111 -121 -111
-197 0 -124 98 -222 223 -222 63 0 101 16 165 66 69 55 65 60 65 -83 l0 -130
-487 -3 c-593 -4 -542 8 -696 -171 -102 -120 -119 -153 -125 -248 -7 -118 33
-179 118 -179 l30 0 0 -881 c0 -966 -3 -925 59 -962 27 -16 180 -17 2351 -17
2561 0 2361 -5 2394 64 14 30 16 83 16 408 0 363 -1 375 -20 396 -28 30 -82
30 -110 0 -19 -20 -20 -34 -20 -220 l0 -198 -505 0 -505 0 0 705 0 705 505 0
505 0 0 -358 c0 -347 1 -359 20 -380 28 -30 82 -30 110 0 19 21 20 33 20 380
l0 358 30 0 c85 0 125 61 118 179 -6 95 -23 128 -125 248 -154 180 -104 167
-695 171 l-488 3 0 130 c0 71 3 129 6 129 3 0 26 -17 52 -39 69 -57 103 -71
172 -71 208 0 301 242 148 387 -75 71 -1496 1226 -1530 1244 -48 25 -150 25
-195 1z m888 -751 c440 -360 755 -625 760 -639 20 -51 -42 -113 -93 -93 -12 5
-339 269 -726 585 -565 463 -708 576 -731 576 -23 0 -167 -113 -732 -576 -387
-316 -715 -580 -727 -585 -54 -21 -116 45 -90 97 7 15 351 302 763 640 718
587 752 614 787 611 34 -2 120 -69 789 -616z m-244 -189 l548 -447 3 -1353 2
-1352 -150 0 -150 0 0 77 c0 116 -43 188 -123 208 l-27 7 0 367 c0 404 -3 431
-62 523 -59 93 -151 151 -265 168 -88 13 -558 13 -646 0 -114 -17 -206 -75
-265 -168 -59 -92 -62 -119 -62 -523 l0 -367 -27 -7 c-80 -20 -123 -92 -123
-208 l0 -77 -150 0 -150 0 0 1350 0 1350 98 80 c53 44 300 246 547 449 248
203 451 370 452 370 1 1 249 -200 550 -447z m-1797 -1142 l0 -150 -214 0
c-124 0 -226 -4 -242 -10 -55 -21 -71 -78 -34 -118 20 -21 27 -22 255 -22
l235 0 0 -705 0 -705 -505 0 -505 0 0 705 0 705 130 0 c120 0 131 2 150 22 37
40 21 97 -34 118 -15 5 -109 10 -213 10 l-186 0 6 40 c8 65 157 236 217 250
19 4 239 8 488 9 l452 1 0 -150z m3435 140 c29 -6 54 -23 90 -62 97 -104 127
-146 132 -188 l6 -40 -582 0 -581 0 0 150 0 150 448 0 c246 0 465 -5 487 -10z
m-2265 -1395 l0 -455 -210 0 -210 0 0 364 0 364 28 53 c51 98 116 126 295 128
l97 1 0 -455z m391 445 c73 -14 127 -53 161 -119 l28 -53 0 -364 0 -364 -210
0 -210 0 0 455 0 455 89 0 c48 0 113 -5 142 -10z m-1561 -1125 l0 -75 -505 0
-505 0 0 75 0 75 505 0 505 0 0 -75z m1881 65 c16 -9 19 -22 19 -75 l0 -65
-650 0 -650 0 0 65 c0 50 4 66 18 74 24 14 1236 15 1263 1z m1629 -65 l0 -75
-505 0 -505 0 0 75 0 75 505 0 505 0 0 -75z"/>
<path d="M2410 3711 c-203 -65 -350 -264 -350 -476 0 -214 153 -419 359 -479
78 -23 213 -21 293 4 120 37 237 139 297 257 133 265 -13 605 -298 693 -82 26
-223 26 -301 1z m305 -163 c62 -32 139 -112 167 -175 17 -37 22 -68 22 -138 0
-78 -3 -97 -27 -146 -37 -76 -116 -150 -192 -178 -50 -19 -74 -22 -145 -19
-104 5 -163 32 -233 107 -71 76 -91 127 -91 236 0 109 20 160 91 236 80 85
141 110 268 106 74 -3 99 -8 140 -29z"/>
<path d="M2517 3456 c-24 -18 -37 -68 -37 -141 0 -101 11 -123 98 -187 86 -66
119 -72 157 -33 42 41 29 80 -46 138 -47 37 -49 40 -49 90 0 98 -26 146 -80
146 -14 0 -33 -6 -43 -13z"/>
<path d="M1986 2530 c-96 -17 -189 -102 -216 -198 -15 -54 -12 -139 5 -176 33
-69 -5 -66 785 -66 789 0 752 -3 785 66 13 28 16 54 13 108 -8 115 -59 196
-156 243 l-57 28 -555 2 c-305 0 -577 -3 -604 -7z m1160 -162 c32 -18 64 -71
64 -107 l0 -21 -650 0 c-636 0 -650 0 -650 19 0 52 41 105 95 121 16 4 273 8
570 7 488 -2 543 -4 571 -19z"/>
<path d="M549 1981 c-97 -31 -99 -39 -99 -401 0 -331 3 -350 59 -383 25 -15
62 -17 296 -17 296 0 310 3 339 64 14 29 16 77 16 336 0 430 22 404 -340 407
-135 1 -257 -2 -271 -6z m461 -396 l0 -255 -205 0 -205 0 0 255 0 255 205 0
205 0 0 -255z"/>
<path d="M4059 1981 c-97 -31 -99 -39 -99 -401 0 -331 3 -350 59 -383 25 -15
62 -17 296 -17 296 0 310 3 339 64 14 29 16 77 16 336 0 430 22 404 -340 407
-135 1 -257 -2 -271 -6z m461 -396 l0 -255 -205 0 -205 0 0 255 0 255 205 0
205 0 0 -255z"/>
</g>
</svg>
