<?xml version="1.0" standalone="no"?>
<!DOCTYPE svg PUBLIC "-//W3C//DTD SVG 20010904//EN"
 "http://www.w3.org/TR/2001/REC-SVG-20010904/DTD/svg10.dtd">
<svg version="1.0" xmlns="http://www.w3.org/2000/svg"
 width="200.000000pt" height="200.000000pt" viewBox="0 0 200.000000 200.000000"
 preserveAspectRatio="xMidYMid meet">

<g transform="translate(0.000000,200.000000) scale(0.100000,-0.100000)"
fill="#000000" stroke="none">
<path d="M567 1940 c-45 -14 -95 -58 -118 -102 -17 -33 -20 -55 -17 -104 7
-115 84 -188 199 -188 196 -2 274 253 113 367 -44 31 -126 44 -177 27z"/>
<path d="M1245 1570 c-11 -4 -33 -22 -49 -39 -27 -28 -35 -31 -93 -31 -60 0
-64 -2 -75 -27 -7 -16 -13 -29 -13 -30 -1 -2 -56 6 -123 17 -246 40 -355 36
-472 -16 -75 -33 -142 -103 -180 -187 -32 -73 -110 -333 -110 -370 0 -14 11
-38 24 -54 19 -22 32 -28 65 -28 62 0 76 22 127 196 25 85 50 161 55 169 5 9
9 -51 9 -151 l0 -165 -80 -343 c-44 -189 -80 -352 -80 -363 0 -50 50 -98 101
-98 28 0 77 27 89 49 5 11 41 156 80 323 93 397 88 380 108 376 15 -3 17 -34
22 -345 l5 -343 26 -26 c16 -15 41 -28 66 -31 34 -4 45 -1 73 24 l34 30 -3
588 -3 588 33 -7 c18 -3 57 -9 86 -13 l53 -6 0 -328 c0 -327 0 -328 22 -343
34 -24 772 -24 806 0 l22 15 0 438 c0 326 -3 440 -12 449 -9 9 -78 12 -250 12
l-237 0 -15 28 c-14 27 -54 53 -79 51 -7 0 -21 -4 -32 -9z m-567 -192 c2 -29
0 -38 -12 -38 -9 0 -16 -1 -16 -3 0 -1 9 -67 20 -147 l21 -144 -31 -30 -30
-31 -29 30 -30 30 19 135 c24 163 24 160 5 160 -10 0 -15 10 -15 33 0 44 6 49
55 45 38 -3 40 -4 43 -40z m1102 -338 l0 -380 -335 0 -335 0 0 380 0 380 335
0 335 0 0 -380z"/>
<path d="M1427 1254 c-4 -4 -7 -14 -7 -22 0 -28 -33 -41 -107 -42 -74 0 -100
-13 -70 -35 14 -10 12 -17 -14 -61 -37 -63 -36 -80 4 -104 38 -24 68 -25 107
-5 45 23 46 47 6 110 l-36 55 38 0 c66 -1 72 -12 72 -139 0 -102 -2 -111 -19
-111 -10 0 -24 -7 -31 -15 -7 -8 -20 -15 -29 -15 -20 0 -41 -19 -41 -37 0 -10
34 -13 150 -13 83 0 150 3 150 6 0 20 -24 44 -44 44 -13 0 -26 7 -30 15 -3 8
-15 15 -26 15 -19 0 -20 6 -20 113 0 75 4 117 12 125 7 7 29 12 50 12 l39 0
-36 -55 c-19 -31 -35 -59 -35 -64 0 -18 62 -61 88 -61 35 0 92 35 92 56 0 9
-14 39 -31 66 -28 47 -29 51 -12 63 30 22 4 34 -81 37 -76 3 -80 4 -96 32 -17
31 -32 41 -43 30z m-114 -174 l18 -30 -41 0 -41 0 18 30 c9 17 20 30 23 30 3
0 14 -13 23 -30z m327 -22 c0 -5 -16 -8 -35 -8 -40 0 -41 2 -18 36 l17 26 18
-24 c9 -12 18 -26 18 -30z"/>
</g>
</svg>
