<?xml version="1.0" standalone="no"?>
<!DOCTYPE svg PUBLIC "-//W3C//DTD SVG 20010904//EN"
 "http://www.w3.org/TR/2001/REC-SVG-20010904/DTD/svg10.dtd">
<svg version="1.0" xmlns="http://www.w3.org/2000/svg"
 width="200.000000pt" height="200.000000pt" viewBox="0 0 200.000000 200.000000"
 preserveAspectRatio="xMidYMid meet">

<g transform="translate(0.000000,200.000000) scale(0.100000,-0.100000)"
fill="#000000" stroke="none">
<path d="M137 1903 c-4 -3 -7 -23 -7 -44 0 -37 -1 -38 -42 -41 l-43 -3 0 -830
0 -830 605 0 605 0 3 43 c3 40 5 42 35 42 54 0 56 6 59 140 3 124 3 124 30
140 l28 15 219 -219 c207 -207 222 -220 257 -220 44 0 74 31 74 77 0 27 -29
60 -220 252 l-221 221 25 45 c43 77 59 152 54 253 -3 80 -8 101 -40 166 -42
88 -89 146 -155 190 l-48 31 -5 287 -5 287 -601 3 c-330 1 -604 -1 -607 -5z
m1171 -295 l2 -257 -22 8 c-23 8 -23 10 -26 227 -2 159 -6 220 -15 226 -6 4
-252 8 -544 8 l-533 0 0 25 0 25 568 -2 567 -3 3 -257z m-88 -33 l0 -195 -87
0 c-66 -1 -102 -6 -143 -22 -52 -21 -75 -22 -450 -28 -256 -3 -394 -9 -393
-15 2 -6 134 -12 359 -15 l356 -5 -36 -32 -35 -33 -323 -2 c-209 -2 -322 -7
-321 -13 2 -6 117 -12 308 -15 l305 -5 -20 -32 -20 -33 -287 -2 c-186 -2 -287
-7 -286 -13 2 -6 107 -11 282 -13 l280 -2 -14 -33 -13 -32 -266 -5 c-359 -7
-361 -24 -2 -28 238 -2 267 -4 262 -18 -3 -9 -6 -24 -6 -35 0 -18 -10 -19
-260 -19 -224 0 -260 -2 -260 -15 0 -13 35 -15 259 -15 l259 0 4 -30 4 -30
-260 -2 c-224 -3 -261 -5 -261 -18 0 -13 38 -15 268 -18 147 -1 267 -6 267
-10 0 -4 3 -17 6 -29 6 -22 5 -22 -117 -25 -87 -2 -124 -7 -127 -15 -3 -10 28
-13 131 -13 l135 0 21 -35 20 -34 -151 -3 c-110 -2 -152 -6 -156 -15 -3 -10
34 -13 163 -13 l168 0 38 -35 39 -35 -202 -2 c-150 -2 -202 -6 -206 -15 -3
-10 46 -13 224 -13 223 0 229 -1 293 -27 54 -21 83 -26 159 -27 l92 -1 -2
-130 -3 -130 -567 -3 -568 -2 0 790 0 790 570 0 570 0 0 -195z m102 -278 c321
-158 316 -615 -7 -763 -162 -75 -334 -47 -467 75 -104 95 -153 237 -130 372
28 161 129 283 282 339 44 16 74 20 151 17 88 -2 103 -6 171 -40z m-12 -912
c0 -95 0 -95 -25 -95 -25 0 -25 1 -25 89 0 92 1 93 43 100 4 0 7 -42 7 -94z"/>
<path d="M144 1697 c-3 -8 -4 -54 -2 -103 l3 -89 503 -3 502 -2 0 105 0 105
-500 0 c-407 0 -502 -2 -506 -13z"/>
<path d="M147 1424 c-4 -4 -4 -11 -1 -15 3 -5 230 -9 505 -9 437 0 499 2 499
15 0 13 -62 15 -498 15 -274 0 -502 -3 -505 -6z"/>
<path d="M151 726 c-8 -9 -11 -59 -9 -162 l3 -149 125 0 125 0 0 160 0 160
-116 3 c-91 2 -119 -1 -128 -12z"/>
<path d="M457 433 c-4 -3 -7 -10 -7 -15 0 -4 158 -8 350 -8 304 0 350 2 350
15 0 13 -45 15 -343 15 -189 0 -347 -3 -350 -7z"/>
<path d="M147 334 c-4 -4 -4 -11 -1 -15 3 -5 230 -9 505 -9 437 0 499 2 499
15 0 13 -62 15 -498 15 -274 0 -502 -3 -505 -6z"/>
<path d="M985 1281 l-40 -20 150 2 c126 2 150 4 150 17 0 12 -20 15 -110 17
-91 2 -117 0 -150 -16z"/>
<path d="M1330 921 c0 -187 3 -341 8 -341 4 0 15 7 25 14 16 12 17 37 15 326
-3 312 -3 313 -25 328 l-23 14 0 -341z"/>
<path d="M832 1168 c-7 -7 -12 -16 -12 -20 0 -4 92 -8 204 -8 158 0 206 3 215
13 6 8 8 17 4 20 -12 13 -398 8 -411 -5z"/>
<path d="M1440 915 c0 -135 2 -245 4 -245 2 0 14 15 25 34 19 31 21 48 21 212
0 161 -2 182 -20 212 -11 17 -22 32 -25 32 -3 0 -5 -110 -5 -245z"/>
<path d="M767 1054 c-21 -21 14 -24 236 -22 153 2 242 7 242 13 0 11 -467 20
-478 9z"/>
<path d="M747 943 c-4 -3 -7 -12 -7 -20 0 -10 48 -13 248 -13 137 0 252 3 255
7 4 3 2 12 -4 20 -9 10 -62 13 -249 13 -130 0 -240 -3 -243 -7z"/>
<path d="M757 810 c5 -20 11 -20 247 -18 206 3 241 5 241 18 0 13 -35 15 -247
18 -243 2 -246 2 -241 -18z"/>
<path d="M815 690 c17 -19 31 -20 215 -20 153 0 200 3 209 13 6 8 8 17 4 20
-3 4 -105 7 -226 7 -219 0 -220 0 -202 -20z"/>
<path d="M942 574 c22 -11 58 -14 163 -12 197 4 179 22 -25 25 -152 2 -163 1
-138 -13z"/>
</g>
</svg>
