<?xml version="1.0" standalone="no"?>
<!DOCTYPE svg PUBLIC "-//W3C//DTD SVG 20010904//EN"
 "http://www.w3.org/TR/2001/REC-SVG-20010904/DTD/svg10.dtd">
<svg version="1.0" xmlns="http://www.w3.org/2000/svg"
 width="512.000000pt" height="512.000000pt" viewBox="0 0 512.000000 512.000000"
 preserveAspectRatio="xMidYMid meet">

<g transform="translate(0.000000,512.000000) scale(0.100000,-0.100000)"
fill="#000000" stroke="none">
<path d="M1759 5107 c-110 -31 -222 -133 -260 -237 l-22 -60 -599 0 -599 0
-24 -25 -25 -24 0 -876 0 -876 25 -24 c30 -30 64 -32 99 -4 l26 20 0 830 0
829 430 0 431 0 -24 -42 c-14 -24 -30 -60 -37 -80 l-12 -38 -282 0 c-271 0
-284 -1 -310 -21 l-26 -20 0 -2054 0 -2054 26 -20 27 -21 1417 0 c1381 0 1418
0 1441 19 l24 19 3 2041 c2 1818 0 2045 -13 2071 -9 17 -17 31 -18 32 -1 1
-137 4 -301 7 l-299 6 -12 42 c-7 23 -22 58 -35 77 l-22 36 431 0 431 0 0
-2255 0 -2255 -1635 0 -1635 0 0 1293 0 1294 -23 21 c-33 31 -80 29 -106 -4
l-21 -27 0 -1339 0 -1339 25 -24 24 -25 1736 0 1736 0 24 25 25 24 0 2354 c0
2303 0 2355 -19 2378 l-19 24 -607 5 -607 5 -15 44 c-32 96 -113 183 -211 229
-56 27 -61 27 -287 29 -162 2 -244 -1 -276 -10z m483 -149 c52 -15 122 -78
141 -126 8 -21 18 -59 22 -84 9 -60 28 -76 109 -94 81 -19 137 -58 165 -118
23 -46 46 -170 35 -187 -3 -5 -127 -9 -288 -9 -311 0 -305 1 -321 -62 -6 -22
-1 -33 23 -58 l30 -30 326 0 325 0 27 23 c22 19 28 34 32 80 l4 57 234 0 234
0 0 -1945 0 -1945 -1320 0 -1320 0 0 1945 0 1945 230 0 230 0 0 -51 c0 -43 5
-55 29 -80 l29 -29 326 0 325 0 27 23 c33 28 37 76 9 107 -17 19 -32 20 -304
22 l-286 3 3 62 c7 153 75 235 205 250 68 7 93 30 101 95 4 28 16 68 26 89 23
44 84 98 131 115 46 17 407 18 461 2z"/>
<path d="M1965 4785 c-14 -13 -25 -36 -25 -50 0 -33 42 -75 75 -75 33 0 75 42
75 75 0 33 -42 75 -75 75 -14 0 -37 -11 -50 -25z"/>
<path d="M1503 3856 l-28 -24 0 -495 c0 -473 1 -496 19 -516 19 -21 23 -21
521 -21 498 0 502 0 521 21 18 20 19 43 19 516 l0 495 -28 24 -28 24 -484 0
-484 0 -28 -24z m279 -262 c4 -183 -8 -174 230 -174 99 0 188 4 198 10 29 16
40 66 40 187 l0 114 78 -3 77 -3 3 -387 2 -388 -395 0 -395 0 0 383 c0 211 3
387 7 390 3 4 39 7 79 7 l72 0 4 -136z m316 54 l3 -78 -86 0 -85 0 0 73 c0 41
3 77 7 81 4 4 41 5 83 4 l75 -3 3 -77z"/>
<path d="M1120 2288 c-175 -106 -130 -374 70 -417 188 -40 338 157 250 329
-40 78 -112 120 -208 120 -48 0 -67 -6 -112 -32z m179 -144 c25 -32 27 -62 5
-92 -45 -65 -143 -36 -144 42 0 71 96 105 139 50z"/>
<path d="M1655 2145 c-14 -13 -25 -36 -25 -50 0 -14 11 -37 25 -50 l24 -25
649 0 649 0 21 23 c29 31 28 72 -3 102 l-24 25 -646 0 -646 0 -24 -25z"/>
<path d="M1145 1681 c-169 -78 -182 -313 -22 -405 92 -53 201 -40 275 34 146
146 45 391 -160 390 -30 0 -70 -8 -93 -19z m150 -156 c14 -13 25 -36 25 -50 0
-30 -49 -85 -75 -85 -24 0 -72 27 -79 45 -33 86 65 154 129 90z"/>
<path d="M1655 1525 c-32 -31 -33 -74 -2 -103 l23 -22 650 0 651 0 21 23 c29
31 28 72 -3 102 l-24 25 -646 0 -646 0 -24 -25z"/>
<path d="M1145 1061 c-137 -64 -178 -240 -83 -356 45 -54 101 -79 179 -80 56
0 73 4 115 30 30 19 60 49 79 79 75 122 11 294 -124 335 -56 16 -120 13 -166
-8z m144 -148 c11 -10 24 -32 27 -50 5 -27 1 -37 -25 -64 -27 -26 -37 -30 -64
-25 -65 13 -89 85 -42 131 29 30 74 33 104 8z"/>
<path d="M1673 920 c-46 -19 -57 -83 -20 -118 l23 -22 652 0 c639 0 652 0 672
20 25 25 26 71 1 101 l-19 24 -644 2 c-359 1 -653 -2 -665 -7z"/>
<path d="M4196 3865 c-97 -34 -149 -109 -154 -223 -4 -67 -6 -73 -28 -78 -55
-14 -54 -8 -54 -534 0 -527 -1 -520 55 -534 29 -7 79 15 89 39 3 9 6 106 6
216 l0 199 160 0 160 0 0 -585 0 -585 -160 0 -160 0 0 235 c0 252 -4 278 -50
293 -32 11 -84 -7 -94 -33 -3 -9 -6 -374 -6 -811 l0 -795 25 -24 c13 -14 31
-25 40 -25 13 0 15 -21 15 -142 0 -117 4 -150 19 -183 21 -45 62 -90 103 -111
25 -13 28 -20 28 -65 0 -103 58 -150 124 -98 23 18 26 27 26 84 0 60 1 63 30
75 45 19 106 93 119 145 6 24 11 100 11 168 l0 125 30 11 c18 6 34 21 40 36 6
17 10 431 10 1156 l0 1129 55 0 c46 0 60 -4 80 -25 l25 -24 0 -420 0 -420 26
-20 c35 -28 69 -26 99 4 l25 24 0 411 c0 267 -4 427 -11 455 -14 55 -70 122
-123 146 -27 12 -65 19 -108 19 l-68 0 0 200 c0 217 -5 241 -51 261 -27 10
-29 16 -29 63 0 116 -65 212 -163 241 -62 18 -90 18 -141 0z m125 -164 c24
-25 29 -37 29 -80 l0 -51 -80 0 -80 0 0 53 c0 55 10 76 45 95 33 18 55 14 86
-17z m109 -441 l0 -160 -160 0 -160 0 0 160 0 160 160 0 160 0 0 -160z m0
-2060 l0 -430 -160 0 -160 0 0 430 0 430 160 0 160 0 0 -430z m-80 -709 c0
-115 -2 -131 -21 -155 -27 -34 -82 -36 -116 -4 -22 20 -23 28 -23 155 l0 133
80 0 80 0 0 -129z"/>
</g>
</svg>
