<?xml version="1.0" standalone="no"?>
<!DOCTYPE svg PUBLIC "-//W3C//DTD SVG 20010904//EN"
 "http://www.w3.org/TR/2001/REC-SVG-20010904/DTD/svg10.dtd">
<svg version="1.0" xmlns="http://www.w3.org/2000/svg"
 width="225.000000pt" height="225.000000pt" viewBox="0 0 225.000000 225.000000"
 preserveAspectRatio="xMidYMid meet">

<g transform="translate(0.000000,225.000000) scale(0.100000,-0.100000)"
fill="#000000" stroke="none">
<path d="M930 2122 c-75 -37 -199 -97 -275 -134 -465 -222 -574 -278 -584
-296 -7 -13 -11 -88 -11 -190 0 -157 1 -170 20 -187 11 -10 36 -19 55 -19 l35
-1 0 -545 c0 -516 1 -547 19 -576 41 -67 1 -64 905 -64 886 0 860 -2 904 55
22 28 22 29 22 575 l0 548 40 7 c26 4 47 16 61 33 19 25 20 37 17 189 -3 147
-5 164 -23 182 -19 18 -158 90 -350 181 -44 21 -188 91 -320 155 -298 146
-320 155 -353 154 -15 0 -88 -31 -162 -67z m615 -299 c226 -103 413 -191 418
-197 4 -6 6 -45 5 -86 l-3 -75 -50 -5 -50 -5 -5 -575 c-3 -316 -9 -581 -13
-588 -14 -20 -85 -15 -97 7 -6 13 -10 171 -10 444 0 378 -2 426 -16 431 -9 3
-293 6 -633 6 -467 0 -620 -3 -629 -12 -9 -9 -12 -120 -12 -438 0 -318 -3
-429 -12 -438 -13 -13 -56 -16 -82 -6 -14 6 -16 66 -16 578 0 432 -3 575 -12
584 -7 7 -31 12 -54 12 -50 0 -54 7 -54 94 0 74 3 78 110 126 109 48 126 56
455 204 218 98 307 134 325 130 14 -3 210 -89 435 -191z m-717 -935 c16 -16
16 -130 0 -146 -17 -17 -239 -17 -256 0 -7 7 -12 39 -12 73 0 34 5 66 12 73
17 17 239 17 256 0z m-6 -219 c15 -8 18 -23 18 -79 0 -44 -4 -72 -12 -77 -19
-11 -228 -14 -250 -2 -26 14 -27 143 0 158 22 13 221 12 244 0z m342 -5 c18
-17 22 -119 7 -143 -12 -19 -203 -28 -243 -12 -27 10 -28 13 -28 80 0 56 3 72
18 80 9 6 65 11 124 11 84 0 110 -3 122 -16z m-336 -226 c16 -16 16 -130 0
-146 -17 -17 -239 -17 -256 0 -7 7 -12 39 -12 73 0 34 5 66 12 73 17 17 239
17 256 0z m340 0 c16 -16 16 -130 0 -146 -17 -17 -239 -17 -256 0 -13 13 -17
140 -5 151 12 13 248 8 261 -5z m342 -7 c5 -11 10 -45 10 -75 0 -44 -4 -57
-19 -66 -11 -5 -72 -10 -135 -10 -132 0 -136 3 -136 85 0 83 3 85 145 85 113
0 125 -2 135 -19z"/>
<path d="M462 1448 c-7 -7 -12 -39 -12 -75 0 -79 7 -83 140 -83 133 0 140 4
140 83 0 36 -5 68 -12 75 -8 8 -51 12 -128 12 -77 0 -120 -4 -128 -12z"/>
<path d="M797 1453 c-4 -3 -7 -37 -7 -74 0 -86 5 -89 144 -89 127 0 136 6 136
89 0 31 -5 62 -12 69 -13 13 -249 18 -261 5z"/>
<path d="M1137 1453 c-13 -12 -8 -151 6 -156 7 -2 62 -5 124 -6 135 -2 143 2
139 87 -1 31 -5 63 -10 70 -8 13 -247 18 -259 5z"/>
<path d="M1472 1448 c-17 -17 -16 -123 3 -141 18 -18 214 -24 245 -7 19 10 21
19 18 83 l-3 72 -125 3 c-89 2 -129 -1 -138 -10z"/>
</g>
</svg>
