<?xml version="1.0" standalone="no"?>
<!DOCTYPE svg PUBLIC "-//W3C//DTD SVG 20010904//EN"
 "http://www.w3.org/TR/2001/REC-SVG-20010904/DTD/svg10.dtd">
<svg version="1.0" xmlns="http://www.w3.org/2000/svg"
 width="512.000000pt" height="512.000000pt" viewBox="0 0 512.000000 512.000000"
 preserveAspectRatio="xMidYMid meet">

<g transform="translate(0.000000,512.000000) scale(0.100000,-0.100000)"
fill="#000000" stroke="none">
<path d="M2821 4854 c-18 -23 -21 -41 -21 -130 0 -93 2 -105 23 -130 33 -37
81 -37 114 0 21 25 23 37 23 130 0 89 -3 107 -21 130 -16 20 -29 26 -59 26
-30 0 -43 -6 -59 -26z"/>
<path d="M3920 4640 c0 -138 2 -160 15 -160 9 0 27 -11 40 -25 25 -24 25 -24
25 -240 l0 -215 160 0 160 0 0 215 c0 216 0 216 25 240 13 14 31 25 40 25 13
0 15 22 15 160 l0 160 -240 0 -240 0 0 -160z"/>
<path d="M2315 4645 c-44 -43 -34 -69 58 -162 91 -91 113 -99 161 -62 20 15
26 29 26 57 0 33 -9 46 -78 115 -65 65 -83 77 -110 77 -22 0 -41 -8 -57 -25z"/>
<path d="M3277 4592 c-68 -68 -77 -82 -77 -114 0 -42 36 -78 78 -78 38 0 192
156 192 194 0 38 -41 76 -82 76 -28 0 -45 -12 -111 -78z"/>
<path d="M917 4376 c10 -14 86 -103 168 -200 l150 -175 263 -1 c208 0 262 3
256 13 -4 6 -68 96 -141 200 l-134 187 -290 0 -291 0 19 -24z"/>
<path d="M517 4120 l-197 -230 0 -385 0 -385 80 0 80 0 0 255 0 256 25 24 c24
25 26 25 215 25 189 0 191 0 215 -25 l25 -24 0 -254 0 -254 31 -7 c17 -3 53
-6 80 -6 l49 0 0 390 0 390 -197 230 c-108 127 -200 230 -203 230 -3 0 -95
-103 -203 -230z"/>
<path d="M2815 4306 c-101 -44 -125 -178 -46 -257 112 -113 296 -12 267 146
-18 94 -131 151 -221 111z"/>
<path d="M2185 4215 c-16 -15 -25 -36 -25 -55 0 -19 9 -40 25 -55 23 -24 31
-25 135 -25 104 0 112 1 135 25 16 15 25 36 25 55 0 19 -9 40 -25 55 -23 24
-31 25 -135 25 -104 0 -112 -1 -135 -25z"/>
<path d="M3305 4215 c-16 -15 -25 -36 -25 -55 0 -19 9 -40 25 -55 23 -24 31
-25 135 -25 104 0 112 1 135 25 16 15 25 36 25 55 0 19 -9 40 -25 55 -23 24
-31 25 -135 25 -104 0 -112 -1 -135 -25z"/>
<path d="M2373 3837 c-63 -64 -83 -90 -83 -111 0 -38 41 -76 82 -76 28 0 45
12 111 78 68 68 77 82 77 114 0 28 -6 42 -26 57 -48 37 -70 29 -161 -62z"/>
<path d="M3226 3899 c-20 -15 -26 -29 -26 -57 0 -33 9 -46 78 -115 65 -65 83
-77 110 -77 41 0 82 38 82 76 0 21 -20 47 -83 111 -91 91 -113 99 -161 62z"/>
<path d="M1280 3471 l0 -370 43 -5 c23 -3 89 -10 147 -16 112 -11 310 -37 348
-45 l22 -5 0 405 0 405 -280 0 -280 0 0 -369z"/>
<path d="M4000 3760 l0 -80 160 0 160 0 0 80 0 80 -160 0 -160 0 0 -80z"/>
<path d="M2854 3750 c-44 -17 -54 -48 -54 -156 0 -87 3 -105 21 -128 16 -20
29 -26 59 -26 30 0 43 6 59 26 18 23 21 41 21 130 0 93 -2 105 -22 128 -27 29
-55 38 -84 26z"/>
<path d="M640 3320 l0 -200 80 0 80 0 0 200 0 200 -80 0 -80 0 0 -200z"/>
<path d="M3885 3485 c-60 -42 -164 -144 -210 -205 -47 -64 -100 -173 -126
-261 -20 -68 -23 -100 -27 -386 l-4 -313 642 0 642 0 -4 313 c-5 357 -11 387
-96 552 -37 71 -67 110 -142 186 -52 53 -114 108 -137 123 l-43 26 -222 -1
-223 0 -50 -34z m180 -150 c46 -45 35 -74 -59 -168 -137 -137 -166 -219 -166
-478 0 -156 -1 -160 -25 -184 -32 -33 -78 -33 -111 1 l-26 25 4 197 c4 183 6
203 32 277 44 127 112 227 211 306 69 56 103 62 140 24z"/>
<path d="M320 1929 l0 -1034 51 99 c61 121 153 264 240 371 l65 80 17 103 c64
390 212 867 401 1291 25 57 44 107 41 110 -3 3 -188 7 -410 9 l-405 4 0 -1033z"/>
<path d="M1279 2863 c-160 -351 -286 -707 -364 -1033 -45 -184 -44 -180 -39
-180 2 0 43 32 91 71 104 83 277 200 386 259 52 28 79 49 82 63 2 12 16 90 31
172 29 164 97 446 143 593 16 50 28 92 27 92 0 0 -57 7 -126 15 -205 24 -194
27 -231 -52z"/>
<path d="M1796 2872 c-34 -63 -199 -742 -183 -758 2 -2 48 14 103 36 109 45
396 140 421 140 14 0 15 15 9 118 -12 209 -28 397 -34 404 -4 3 -68 18 -142
32 -74 15 -143 28 -152 30 -10 2 -20 1 -22 -2z"/>
<path d="M2284 2724 c3 -27 11 -123 16 -213 6 -91 12 -167 14 -169 5 -4 258
47 265 53 6 7 -25 139 -55 237 l-25 77 -82 25 c-45 14 -95 28 -111 32 l-28 7
6 -49z"/>
<path d="M2718 2528 c14 -57 26 -105 28 -107 4 -4 277 28 282 34 8 8 -260 152
-314 169 l-22 7 26 -103z"/>
<path d="M3112 2297 c-62 -5 -112 -12 -110 -16 2 -3 51 -103 110 -221 59 -118
139 -294 178 -390 l70 -175 0 408 0 407 -67 -2 c-38 0 -119 -5 -181 -11z"/>
<path d="M2810 2263 c-8 -1 -79 -12 -157 -24 l-142 -22 14 -31 c269 -602 394
-1111 430 -1748 l7 -118 201 0 202 0 -3 307 -3 308 -34 130 c-76 291 -182 567
-345 900 -128 262 -150 301 -170 298z"/>
<path d="M2240 2154 c-113 -29 -340 -100 -358 -112 -25 -16 -109 -485 -147
-819 -21 -181 -43 -490 -51 -715 l-7 -188 562 0 561 0 0 33 c0 17 -5 95 -10
172 -35 477 -139 935 -308 1355 -66 165 -129 300 -139 299 -4 0 -51 -12 -103
-25z"/>
<path d="M3520 1680 l0 -480 640 0 640 0 0 480 0 480 -640 0 -640 0 0 -480z"/>
<path d="M1545 1899 c-77 -38 -148 -76 -158 -84 -21 -15 -36 -72 -76 -299 -55
-303 -93 -665 -107 -1018 l-7 -178 160 0 159 0 12 272 c20 469 67 883 143
1266 11 57 19 105 17 107 -2 2 -66 -28 -143 -66z"/>
<path d="M1105 1627 c-94 -70 -283 -254 -362 -352 -127 -158 -222 -319 -297
-502 -48 -118 -102 -307 -112 -399 l-7 -54 355 0 355 0 7 178 c9 232 31 503
57 699 20 159 65 433 75 466 3 9 4 17 2 17 -2 0 -34 -24 -73 -53z"/>
<path d="M3520 705 l0 -336 25 -24 24 -25 591 0 591 0 24 25 25 24 0 336 0
335 -640 0 -640 0 0 -335z"/>
</g>
</svg>
